<svg width="53" height="40" viewBox="0 0 53 40" fill="none" xmlns="http://www.w3.org/2000/svg">
<rect x="1" y="1" width="51" height="38" rx="7" fill="#27AE60"/>
<path d="M33.8086 24.8633L31.0742 22.1289C30.9375 22.0195 30.7734 21.9375 30.6094 21.9375H30.1719C30.9102 20.9805 31.375 19.7773 31.375 18.4375C31.375 15.3203 28.8047 12.75 25.6875 12.75C22.543 12.75 20 15.3203 20 18.4375C20 21.582 22.543 24.125 25.6875 24.125C27 24.125 28.2031 23.6875 29.1875 22.9219V23.3867C29.1875 23.5508 29.2422 23.7148 29.3789 23.8516L32.0859 26.5586C32.3594 26.832 32.7695 26.832 33.0156 26.5586L33.7812 25.793C34.0547 25.5469 34.0547 25.1367 33.8086 24.8633ZM25.6875 21.9375C23.7461 21.9375 22.1875 20.3789 22.1875 18.4375C22.1875 16.5234 23.7461 14.9375 25.6875 14.9375C27.6016 14.9375 29.1875 16.5234 29.1875 18.4375C29.1875 20.3789 27.6016 21.9375 25.6875 21.9375Z" fill="white"/>
<rect x="1" y="1" width="51" height="38" rx="7" stroke="#27AE60" stroke-width="2"/>
</svg>
